<svg width="40" height="40" viewBox="0 0 40 40" fill="none" xmlns="http://www.w3.org/2000/svg">
<path d="M18.472 6.32008C18.791 5.5228 19.5631 5 20.4218 5H33.898C35.3836 5 36.3995 6.50051 35.8477 7.87992L25.528 33.6799C25.2091 34.4772 24.4369 35 23.5782 35H10.102C8.61638 35 7.60051 33.4995 8.15227 32.1201L18.472 6.32008Z" fill="url(#paint0_linear_42255_31793)"/>
<path d="M13 23C17.9706 23 22 18.9706 22 14C22 9.02944 17.9706 5 13 5C8.02944 5 4 9.02944 4 14C4 18.9706 8.02944 23 13 23Z" fill="#0A33FF"/>
<path d="M22 14.0619C22 18.9983 17.9514 23 12.9571 23C12.6338 23 12.3145 22.9832 12 22.9505L18.501 7C20.6301 8.63527 22 11.1905 22 14.0619Z" fill="url(#paint1_linear_42255_31793)"/>
<defs>
<linearGradient id="paint0_linear_42255_31793" x1="27.5511" y1="5" x2="16.8863" y2="34.9888" gradientUnits="userSpaceOnUse">
<stop stop-color="#FFD60A"/>
<stop offset="1" stop-color="#F0BA09"/>
</linearGradient>
<linearGradient id="paint1_linear_42255_31793" x1="18.4351" y1="7.01101" x2="12.1051" y2="22.973" gradientUnits="userSpaceOnUse">
<stop stop-color="#051A80"/>
<stop offset="1" stop-color="#0A33FF"/>
</linearGradient>
</defs>
</svg>
